<?xml version="1.0" encoding="UTF-8" standalone="no"?>
<svg
   xmlns:dc="http://purl.org/dc/elements/1.1/"
   xmlns:cc="http://creativecommons.org/ns#"
   xmlns:rdf="http://www.w3.org/1999/02/22-rdf-syntax-ns#"
   xmlns:svg="http://www.w3.org/2000/svg"
   xmlns="http://www.w3.org/2000/svg"
   xmlns:sodipodi="http://sodipodi.sourceforge.net/DTD/sodipodi-0.dtd"
   xmlns:inkscape="http://www.inkscape.org/namespaces/inkscape"
   width="200"
   height="200"
   viewBox="0 0 200 200"
   version="1.1"
   id="svg4"
   sodipodi:docname="iconmonstr-shopping-cart-3.svg"
   inkscape:version="0.92.3 (2405546, 2018-03-11)">
  <metadata
     id="metadata10">
    <rdf:RDF>
      <cc:Work
         rdf:about="">
        <dc:format>image/svg+xml</dc:format>
        <dc:type
           rdf:resource="http://purl.org/dc/dcmitype/StillImage" />
        <dc:title></dc:title>
      </cc:Work>
    </rdf:RDF>
  </metadata>
  <defs
     id="defs8" />
  <sodipodi:namedview
     pagecolor="#ffffff"
     bordercolor="#666666"
     borderopacity="1"
     objecttolerance="10"
     gridtolerance="10"
     guidetolerance="10"
     inkscape:pageopacity="0"
     inkscape:pageshadow="2"
     inkscape:window-width="1313"
     inkscape:window-height="744"
     id="namedview6"
     showgrid="false"
     inkscape:zoom="1.7383042"
     inkscape:cx="106.78618"
     inkscape:cy="79.031388"
     inkscape:window-x="53"
     inkscape:window-y="24"
     inkscape:window-maximized="1"
     inkscape:current-layer="svg4" />
  <g
     id="g843"
     transform="translate(7.2669982e-7,8.7004365)">
    <path
       style="stroke-width:5.26661062"
       inkscape:connector-curvature="0"
       id="path2"
       d="m 89.466779,108.418 c 0,4.36602 -3.539162,7.89992 -7.899915,7.89992 -4.360754,0 -7.899916,-3.5339 -7.899916,-7.89992 0,-4.36075 3.539162,-7.89991 7.899916,-7.89991 4.360753,0 7.899915,3.53916 7.899915,7.89991 z m 18.433131,-7.89991 c -4.36075,0 -7.89991,3.53389 -7.89991,7.89991 0,4.36602 3.53916,7.89992 7.89991,7.89992 4.36076,0 7.89992,-3.5339 7.89992,-7.89992 0,-4.36075 -3.53916,-7.89991 -7.89992,-7.89991 z M 114.9361,74.185034 125.34819,37.318762 H 36.800676 L 52.273977,74.185034 Z M 141.10589,21.51893 123.03088,84.718255 H 56.687396 l 4.418686,10.533221 h 69.724648 l 18.29621,-63.199324 h 10.15929 l 3.91309,-10.533222 z" />
    <text
       id="text819"
       y="157.6019"
       x="20.464865"
       style="font-style:normal;font-weight:normal;font-size:18.60052872px;line-height:1.25;font-family:sans-serif;letter-spacing:0px;word-spacing:0px;fill:#000000;fill-opacity:1;stroke:none;stroke-width:0.46501324"
       xml:space="preserve"><tspan
         transform="translate(-13.304136)"
         style="font-style:normal;font-variant:normal;font-weight:500;font-stretch:normal;font-family:Ubuntu;-inkscape-font-specification:'Ubuntu Medium';stroke-width:0.46501324"
         y="157.6019"
         x="20.464865"
         id="tspan817"
         sodipodi:role="line">Your Cart is Empty</tspan></text>
  </g>
</svg>
