<?xml version="1.0" encoding="UTF-8" standalone="no"?>
<svg
   xmlns:dc="http://purl.org/dc/elements/1.1/"
   xmlns:cc="http://creativecommons.org/ns#"
   xmlns:rdf="http://www.w3.org/1999/02/22-rdf-syntax-ns#"
   xmlns:svg="http://www.w3.org/2000/svg"
   xmlns="http://www.w3.org/2000/svg"
   xmlns:sodipodi="http://sodipodi.sourceforge.net/DTD/sodipodi-0.dtd"
   xmlns:inkscape="http://www.inkscape.org/namespaces/inkscape"
   width="24"
   height="24"
   viewBox="0 0 24 24"
   version="1.1"
   id="svg4"
   sodipodi:docname="history.svg"
   inkscape:version="0.92.3 (2405546, 2018-03-11)">
  <metadata
     id="metadata10">
    <rdf:RDF>
      <cc:Work
         rdf:about="">
        <dc:format>image/svg+xml</dc:format>
        <dc:type
           rdf:resource="http://purl.org/dc/dcmitype/StillImage" />
      </cc:Work>
    </rdf:RDF>
  </metadata>
  <defs
     id="defs8" />
  <sodipodi:namedview
     pagecolor="#ffffff"
     bordercolor="#666666"
     borderopacity="1"
     objecttolerance="10"
     gridtolerance="10"
     guidetolerance="10"
     inkscape:pageopacity="0"
     inkscape:pageshadow="2"
     inkscape:window-width="640"
     inkscape:window-height="480"
     id="namedview6"
     showgrid="false"
     inkscape:zoom="9.8333333"
     inkscape:cx="12"
     inkscape:cy="12"
     inkscape:window-x="447"
     inkscape:window-y="69"
     inkscape:window-maximized="0"
     inkscape:current-layer="svg4" />
  <path
     d="m 23.084746,12 c 0,5.896907 -4.781059,10.677966 -10.677966,10.677966 C 6.5098727,22.677966 1.7288136,17.896907 1.7288136,12 h 1.779661 c 0,4.906525 3.9917801,8.898305 8.8983054,8.898305 4.906525,0 8.898305,-3.99178 8.898305,-8.898305 0,-4.9065254 -3.99178,-8.8983051 -8.898305,-8.8983051 -2.4710593,0 -4.7045343,1.0152966 -6.3169071,2.6490254 L 7.9238137,7.584661 1.7288136,8.7894915 2.8900424,2.5491102 4.8289831,4.4889407 C 6.7616947,2.5348729 9.4400847,1.3220339 12.40678,1.3220339 18.303687,1.3220339 23.084746,6.1030932 23.084746,12 Z M 11.516949,6.6610169 v 7.1186441 h 6.228814 V 12 H 13.296611 V 6.6610169 Z"
     id="path2"
     style="fill:#000000;stroke-width:0.88983053"
     inkscape:connector-curvature="0" />
</svg>
